<svg width="24" height="24" viewBox="0 0 24 24" fill="none" xmlns="http://www.w3.org/2000/svg">
<g id="Size=24px">
<path id="Union" d="M4.1611 23.2011C4.97708 23.4195 5.87733 23.327 6.66722 22.8735C7.45711 22.4201 7.9875 21.6903 8.20621 20.8779C8.94527 18.1366 15.4316 14.4756 18.1157 15.1768C18.6875 15.3319 19.2814 15.3279 19.8366 15.1801C20.6532 14.9624 21.3863 14.435 21.8424 13.6493C22.2986 12.8629 22.3915 11.9673 22.1728 11.1543C21.9541 10.3412 21.4244 9.61144 20.6352 9.15732C19.8453 8.7032 18.9457 8.61065 18.129 8.82838C15.4517 9.54153 8.94995 5.86927 8.21156 3.12389C7.99285 2.31087 7.46313 1.58108 6.67324 1.12696C5.88402 0.672833 4.98443 0.580278 4.16779 0.798017C3.35114 1.01509 2.61876 1.54312 2.16195 2.32885C1.70514 3.11457 1.61284 4.01083 1.83155 4.82385C1.98003 5.37652 2.27298 5.89057 2.69367 6.30608C4.64065 8.26506 4.69884 15.6582 2.69702 17.6851C2.27298 18.1013 1.97735 18.618 1.82753 19.174C1.60882 19.987 1.70112 20.8826 2.1566 21.669C2.61208 22.4554 3.34512 22.9834 4.1611 23.2018V23.2011ZM7.65576 7.54392L14.5588 11.5185C14.9327 11.7336 14.9327 12.2709 14.5588 12.486L7.65041 16.4566C7.27586 16.6716 6.80834 16.4026 6.80834 15.9725L6.81436 8.02801C6.81436 7.59786 7.28255 7.32952 7.65643 7.54459L7.65576 7.54392Z" fill="white"/>
</g>
</svg>
